<?xml version="1.0" standalone="no"?>
<!DOCTYPE svg PUBLIC "-//W3C//DTD SVG 20010904//EN"
 "http://www.w3.org/TR/2001/REC-SVG-20010904/DTD/svg10.dtd">
<svg version="1.0" xmlns="http://www.w3.org/2000/svg"
 width="411.000000pt" height="411.000000pt" viewBox="0 0 411.000000 411.000000"
 preserveAspectRatio="xMidYMid meet">

<g transform="translate(0.000000,411.000000) scale(0.100000,-0.100000)"
fill="#5e72e4" stroke="none">
<path d="M1905 4074 c-97 -5 -250 -28 -355 -55 -79 -19 -216 -61 -232 -70 -10
-5 -22 -9 -28 -9 -16 0 -172 -72 -235 -108 -96 -56 -131 -78 -143 -89 -7 -7
-17 -13 -22 -13 -5 0 -15 -6 -22 -12 -7 -7 -31 -26 -53 -43 -113 -84 -193
-158 -281 -261 -27 -31 -54 -62 -59 -68 -6 -6 -22 -27 -35 -46 -13 -19 -27
-37 -31 -40 -3 -3 -12 -16 -19 -29 -7 -14 -17 -30 -22 -35 -14 -18 -82 -129
-95 -156 -46 -98 -83 -183 -83 -191 0 -5 -4 -17 -9 -27 -10 -20 -26 -58 -36
-87 -14 -39 -50 -178 -63 -245 -6 -30 -17 -84 -24 -120 -18 -89 -18 -531 0
-620 36 -182 36 -180 72 -315 12 -46 32 -100 51 -137 5 -10 9 -22 9 -28 0 -6
15 -43 34 -83 18 -40 40 -87 47 -105 8 -17 17 -32 21 -32 5 0 8 -7 8 -15 0 -8
3 -15 8 -15 4 0 18 -23 31 -50 14 -28 28 -50 32 -50 4 0 12 -13 19 -30 7 -16
15 -30 19 -30 4 0 14 -13 24 -29 9 -16 29 -42 44 -59 16 -16 37 -41 48 -55 68
-85 180 -190 290 -272 22 -17 46 -36 53 -43 7 -6 17 -12 22 -12 5 0 15 -6 22
-13 12 -11 47 -33 143 -89 63 -36 219 -108 235 -108 6 0 18 -4 28 -9 16 -9
148 -49 232 -71 38 -9 108 -23 215 -41 93 -17 479 -16 570 0 115 20 177 33
235 48 30 8 69 18 85 23 216 56 526 221 705 374 90 77 253 249 300 316 13 19
32 44 42 54 10 11 18 24 18 28 0 5 9 18 20 30 11 12 20 28 20 35 0 7 4 13 8
13 8 0 97 172 140 270 130 298 188 708 148 1040 -34 277 -87 455 -207 705 -51
106 -135 245 -159 265 -3 3 -17 20 -30 39 -66 95 -288 317 -366 367 -16 10
-31 21 -34 24 -20 24 -204 135 -300 182 -200 97 -354 143 -620 187 -65 11
-322 20 -435 15z m295 -104 c145 -9 204 -17 350 -50 93 -21 293 -92 315 -111
5 -5 17 -9 27 -9 10 0 18 -4 18 -10 0 -5 9 -10 20 -10 11 0 20 -4 20 -10 0 -5
8 -10 18 -10 10 0 27 -8 38 -17 10 -10 33 -25 49 -33 41 -20 163 -98 185 -119
9 -9 30 -26 46 -38 62 -47 236 -227 289 -298 104 -140 225 -357 266 -478 69
-204 89 -292 114 -497 38 -307 -5 -642 -125 -965 -12 -33 -133 -280 -140 -285
-3 -3 -31 -41 -61 -85 -67 -99 -59 -88 -122 -159 -101 -114 -195 -201 -297
-276 -30 -21 -59 -43 -65 -48 -5 -4 -35 -21 -65 -37 -30 -17 -57 -32 -60 -36
-3 -3 -20 -12 -37 -20 -18 -8 -33 -17 -33 -21 0 -5 -9 -8 -20 -8 -11 0 -20 -4
-20 -10 0 -5 -8 -10 -18 -10 -10 0 -22 -4 -28 -8 -5 -5 -36 -19 -69 -31 -33
-13 -69 -27 -80 -32 -26 -11 -121 -39 -165 -49 -150 -33 -204 -41 -343 -49
-165 -10 -432 0 -522 20 -181 39 -283 70 -415 126 -55 24 -184 87 -190 93 -9
9 -64 41 -100 57 -19 8 -42 22 -51 32 -9 9 -31 27 -50 41 -18 14 -44 35 -56
47 -13 12 -23 20 -23 17 0 -6 -228 223 -251 252 -9 11 -24 35 -35 52 -10 18
-22 32 -26 32 -4 0 -8 6 -8 13 0 7 -9 23 -20 35 -11 12 -20 25 -20 30 0 4 -8
17 -18 28 -53 57 -177 358 -222 534 -45 180 -55 270 -55 505 1 207 5 253 36
415 45 227 152 484 280 669 35 51 75 110 88 130 47 70 267 278 371 351 19 13
37 27 40 30 3 3 30 18 60 34 30 16 57 32 60 35 5 7 172 89 205 101 11 4 31 12
45 18 43 19 172 59 240 75 143 34 170 38 300 46 74 4 142 9 150 9 8 1 89 -3
180 -8z"/>
<path d="M1189 3540 c-1 -88 -2 -163 -3 -167 -2 -5 -6 -44 -9 -88 -7 -72 -15
-149 -33 -300 -3 -27 -8 -151 -11 -275 -6 -266 6 -369 62 -535 22 -63 76 -179
87 -183 4 -2 8 -10 8 -18 0 -8 5 -14 10 -14 6 0 10 -6 10 -13 0 -7 9 -23 20
-35 11 -12 20 -25 20 -29 0 -8 22 -35 113 -137 69 -78 68 -77 276 -266 16 -14
43 -36 61 -50 19 -14 44 -35 56 -47 13 -13 26 -23 30 -23 4 0 14 -8 23 -18 9
-11 26 -24 39 -31 47 -25 62 -44 55 -70 -7 -28 -52 -101 -62 -101 -3 0 -17
-10 -31 -22 -26 -24 -127 -88 -137 -88 -4 0 -38 -15 -77 -34 -102 -48 -165
-76 -173 -76 -7 0 -140 -50 -188 -71 -11 -4 -54 -19 -95 -33 -69 -22 -135 -46
-185 -66 -11 -4 -42 -16 -70 -25 -27 -10 -53 -20 -57 -24 -4 -3 60 -6 142 -7
82 -1 184 -6 227 -13 121 -19 308 -66 323 -81 3 -3 14 -10 25 -16 73 -40 97
-57 140 -99 40 -41 65 -73 65 -85 0 -6 3 -10 8 -10 4 0 15 -20 25 -44 l18 -45
37 22 c20 12 39 25 40 29 2 4 9 8 16 8 7 0 21 8 32 18 10 9 38 30 60 45 67 45
184 183 184 216 0 6 5 11 10 11 6 0 10 9 10 20 0 11 3 20 8 20 4 0 18 28 30
63 13 34 27 71 31 82 6 15 31 26 102 44 52 13 112 32 133 42 22 11 46 19 53
19 7 0 13 5 13 10 0 6 7 10 16 10 18 0 147 70 152 82 2 4 10 8 18 8 8 0 14 5
14 10 0 6 5 10 10 10 11 0 24 10 61 43 10 9 22 17 25 17 5 0 90 88 168 175 20
21 42 52 48 67 7 15 16 28 20 28 5 0 8 8 8 18 0 10 4 22 9 28 8 9 20 52 42
154 6 30 16 61 22 68 5 6 6 12 3 12 -4 0 -1 7 8 15 24 25 91 19 184 -16 29
-11 28 -4 -3 27 -32 32 -55 87 -55 130 0 67 -71 204 -106 204 -8 0 -14 4 -14
9 0 34 -216 51 -276 22 -16 -7 -38 -18 -50 -23 -11 -5 -36 -23 -55 -39 -69
-58 -144 -91 -228 -96 l-76 -6 -45 41 c-25 23 -48 42 -52 42 -4 0 -33 33 -65
73 -32 39 -60 74 -64 77 -11 10 -66 95 -90 140 -13 25 -26 47 -30 50 -10 9
-64 132 -108 250 -18 47 -37 95 -42 108 -5 12 -14 34 -20 50 -22 56 -92 188
-118 222 -14 19 -35 49 -46 66 -40 65 -289 326 -384 404 -24 19 -62 52 -85 72
-22 21 -44 38 -47 38 -6 0 -23 14 -81 66 -15 13 -32 24 -38 24 -5 0 -10 4 -10
8 0 5 -16 17 -35 28 -19 10 -35 22 -35 26 0 5 -4 8 -10 8 -6 0 -10 -61 -11
-160z"/>
<path d="M2650 3543 c-14 -9 -27 -19 -30 -22 -3 -3 -27 -24 -54 -46 -58 -46
-111 -99 -146 -145 -14 -18 -35 -43 -47 -56 -13 -13 -23 -28 -23 -34 0 -5 -4
-10 -10 -10 -5 0 -10 -7 -10 -15 0 -8 -4 -15 -10 -15 -5 0 -10 -7 -10 -15 0
-8 -4 -15 -10 -15 -5 0 -10 -6 -10 -14 0 -8 -4 -16 -8 -18 -13 -5 -83 -155
-99 -211 -50 -178 -54 -216 -26 -283 13 -32 23 -61 23 -66 0 -40 164 -351 223
-424 69 -85 129 -154 135 -154 4 0 25 -16 47 -36 32 -29 44 -35 68 -30 16 3
36 6 44 6 17 0 13 18 -24 100 -114 254 -148 385 -161 630 -6 113 7 360 23 445
29 148 90 347 126 411 22 39 21 39 -11 17z"/>
</g>
</svg>
