<?xml version="1.0" standalone="no"?>
<!DOCTYPE svg PUBLIC "-//W3C//DTD SVG 20010904//EN"
 "http://www.w3.org/TR/2001/REC-SVG-20010904/DTD/svg10.dtd">
<svg version="1.0" xmlns="http://www.w3.org/2000/svg"
 width="412.000000pt" height="412.000000pt" viewBox="0 0 412.000000 412.000000"
 preserveAspectRatio="xMidYMid meet">

<g transform="translate(0.000000,412.000000) scale(0.100000,-0.100000)"
fill="#5e72e4" stroke="none">
<path d="M2885 4074 c-97 -5 -250 -28 -355 -55 -79 -19 -216 -61 -232 -70 -10
-5 -22 -9 -28 -9 -16 0 -172 -72 -235 -108 -96 -56 -131 -78 -143 -89 -7 -7
-17 -13 -22 -13 -5 0 -15 -6 -22 -12 -7 -7 -31 -26 -53 -43 -113 -84 -193
-158 -281 -261 -27 -31 -54 -62 -59 -68 -6 -6 -22 -27 -35 -46 -13 -19 -27
-37 -31 -40 -3 -3 -12 -16 -19 -29 -7 -14 -17 -30 -22 -35 -14 -18 -82 -129
-95 -156 -46 -98 -83 -183 -83 -191 0 -5 -4 -17 -9 -27 -10 -20 -26 -58 -36
-87 -14 -39 -50 -178 -63 -245 -6 -30 -17 -84 -24 -120 -9 -43 -13 -149 -13
-310 0 -161 4 -267 13 -310 36 -182 36 -180 72 -315 12 -46 32 -100 51 -137 5
-10 9 -22 9 -28 0 -9 29 -76 83 -190 13 -27 81 -138 95 -156 5 -5 15 -21 22
-35 7 -13 16 -26 19 -29 4 -3 18 -21 31 -40 13 -19 29 -40 35 -46 5 -6 32 -37
59 -68 88 -103 168 -177 281 -261 22 -17 46 -36 53 -43 7 -6 17 -12 22 -12 5
0 15 -6 22 -13 12 -11 47 -33 143 -89 63 -36 219 -108 235 -108 6 0 18 -4 28
-9 16 -9 148 -49 232 -71 38 -9 108 -23 215 -41 93 -17 479 -16 570 0 115 20
177 33 235 48 30 8 69 18 85 23 216 56 526 221 705 374 91 78 254 250 300 316
13 19 27 37 31 40 31 23 148 234 217 390 129 295 188 708 148 1040 -34 277
-87 455 -207 705 -51 106 -135 245 -159 265 -3 3 -17 21 -30 40 -46 66 -209
238 -300 316 -91 77 -275 195 -400 256 -201 97 -354 143 -620 187 -65 11 -322
20 -435 15z m295 -104 c145 -9 204 -17 350 -50 54 -13 159 -46 220 -69 59 -24
242 -112 250 -121 3 -3 30 -18 60 -34 30 -16 57 -32 60 -35 3 -4 16 -14 30
-23 78 -49 236 -191 330 -294 116 -129 272 -384 330 -539 119 -316 163 -658
125 -965 -26 -213 -58 -348 -125 -525 -27 -74 -123 -255 -174 -330 -104 -152
-123 -176 -236 -294 -46 -48 -178 -160 -232 -197 -24 -16 -45 -32 -48 -35 -3
-3 -30 -19 -60 -35 -30 -16 -57 -31 -60 -34 -7 -9 -210 -105 -250 -120 -19 -6
-44 -16 -55 -21 -26 -11 -121 -39 -165 -49 -150 -33 -204 -41 -343 -49 -165
-10 -432 0 -522 20 -283 61 -454 128 -672 261 -149 92 -199 133 -353 288 -174
176 -342 455 -415 689 -85 273 -100 372 -100 656 1 207 5 253 36 415 45 227
152 484 280 669 35 51 74 109 86 127 25 36 180 195 254 259 72 63 103 86 212
153 185 113 368 191 559 236 140 33 168 37 298 45 74 4 142 9 150 9 8 1 89 -3
180 -8z"/>
<path d="M2169 3540 c-1 -88 -2 -163 -3 -167 -2 -5 -6 -44 -9 -88 -7 -72 -15
-149 -33 -300 -13 -116 -16 -501 -4 -580 42 -268 133 -454 330 -670 30 -33 68
-71 84 -85 16 -14 50 -45 76 -70 69 -68 145 -134 253 -220 11 -8 24 -19 31
-25 6 -5 30 -23 53 -39 37 -25 42 -32 36 -55 -8 -34 -32 -68 -79 -111 -37 -33
-138 -100 -151 -100 -4 0 -38 -15 -77 -34 -102 -48 -165 -76 -173 -76 -7 0
-140 -50 -188 -71 -11 -4 -54 -19 -95 -33 -69 -22 -135 -46 -185 -66 -11 -4
-42 -16 -70 -25 -27 -10 -53 -20 -57 -24 -4 -3 57 -6 136 -7 198 -1 435 -40
543 -90 112 -52 216 -148 268 -247 l29 -54 35 21 c20 11 38 24 39 28 2 4 9 8
16 8 7 0 21 8 32 18 10 9 38 30 60 45 104 71 200 208 258 370 l21 60 100 27
c110 29 138 40 270 107 146 74 245 151 365 288 50 56 100 131 100 149 0 8 4
17 9 20 4 3 11 18 15 33 3 16 12 60 21 98 8 39 23 85 32 103 15 28 23 32 57
32 36 0 75 -9 134 -31 29 -11 28 -4 -3 27 -32 31 -55 87 -55 129 0 81 -58 181
-129 223 -41 24 -56 27 -142 27 -61 0 -106 -5 -125 -14 -16 -7 -38 -18 -50
-23 -11 -5 -36 -23 -55 -39 -69 -58 -144 -91 -228 -96 l-76 -6 -45 41 c-25 23
-48 42 -52 42 -4 0 -33 33 -65 73 -32 39 -60 74 -64 77 -11 10 -66 95 -90 140
-13 25 -26 47 -30 50 -10 9 -64 132 -108 250 -18 47 -37 95 -42 108 -5 12 -13
32 -17 45 -23 63 -110 222 -135 249 -6 7 -24 31 -38 53 -48 74 -274 310 -389
406 -36 30 -67 56 -70 59 -3 3 -25 21 -50 40 -48 38 -67 53 -108 87 -14 12
-41 30 -59 40 -18 10 -33 21 -33 25 0 5 -4 8 -10 8 -6 0 -10 -61 -11 -160z"/>
<path d="M3630 3543 c-14 -9 -27 -19 -30 -22 -3 -3 -27 -24 -54 -46 -65 -51
-112 -99 -161 -160 -22 -27 -43 -52 -46 -55 -13 -12 -69 -99 -69 -108 0 -6 -4
-12 -8 -14 -13 -5 -83 -155 -99 -211 -50 -178 -54 -216 -26 -283 13 -32 23
-61 23 -66 0 -40 164 -351 223 -424 69 -85 129 -154 135 -154 4 0 25 -16 47
-36 32 -29 44 -35 68 -30 16 3 38 6 47 6 17 0 17 3 5 28 -96 199 -147 346
-175 512 -27 154 -24 485 5 635 29 148 90 347 126 411 22 39 21 39 -11 17z"/>
</g>
</svg>
