<?xml version="1.0" standalone="no"?>
<!DOCTYPE svg PUBLIC "-//W3C//DTD SVG 20010904//EN"
 "http://www.w3.org/TR/2001/REC-SVG-20010904/DTD/svg10.dtd">
<svg version="1.0" xmlns="http://www.w3.org/2000/svg"
 width="127.000000pt" height="130.000000pt" viewBox="0 0 127.000000 130.000000"
 preserveAspectRatio="xMidYMid meet">

<g transform="translate(0.000000,130.000000) scale(0.100000,-0.100000)"
fill="#5e72e4" stroke="none">
<path d="M1145 1239 c-11 -16 -1 -19 13 -3 7 8 8 14 3 14 -5 0 -13 -5 -16 -11z"/>
<path d="M911 1224 c0 -11 3 -14 6 -6 3 7 2 16 -1 19 -3 4 -6 -2 -5 -13z"/>
<path d="M910 1164 c0 -7 -3 -21 -6 -31 -3 -10 3 -6 12 10 10 15 24 27 31 27
17 0 16 -39 -2 -70 -19 -33 -19 -46 0 -30 12 10 19 10 28 1 9 -9 8 -18 -5 -41
-10 -18 -13 -30 -6 -30 6 0 8 -9 5 -20 -3 -11 -1 -17 4 -14 5 3 9 17 8 32 0
15 2 36 6 48 4 12 1 27 -7 35 -7 8 -13 32 -13 54 0 37 -2 40 -27 41 -17 1 -28
-4 -28 -12z"/>
<path d="M1122 1150 c0 -14 2 -19 5 -12 2 6 2 18 0 25 -3 6 -5 1 -5 -13z"/>
<path d="M1111 1107 c-2 -29 -51 -118 -97 -177 -53 -68 -99 -104 -189 -152
-88 -47 -78 -50 13 -4 80 40 141 89 192 154 46 59 93 155 87 179 -4 17 -5 17
-6 0z"/>
<path d="M1226 1047 c3 -10 9 -15 12 -12 3 3 0 11 -7 18 -10 9 -11 8 -5 -6z"/>
<path d="M1242 995 c0 -16 2 -22 5 -12 2 9 2 23 0 30 -3 6 -5 -1 -5 -18z"/>
<path d="M45 969 c-7 -33 5 -56 24 -45 16 10 14 51 -3 65 -12 10 -15 6 -21
-20z"/>
<path d="M790 948 c-7 -12 -35 -47 -64 -77 -40 -42 -44 -48 -18 -30 36 26 108
116 99 125 -3 3 -11 -5 -17 -18z"/>
<path d="M1226 945 c-9 -26 -7 -32 5 -12 6 10 9 21 6 23 -2 3 -7 -2 -11 -11z"/>
<path d="M103 901 c-16 -25 -17 -61 -3 -61 15 0 22 23 18 55 -3 25 -3 25 -15
6z"/>
<path d="M1199 893 c-11 -12 -8 -13 14 -8 33 9 46 -15 27 -51 -13 -24 -67 -80
-105 -109 l-20 -16 20 2 c37 3 45 -1 45 -18 0 -31 -35 -77 -78 -103 -44 -27
-54 -41 -23 -33 10 3 22 -1 26 -8 12 -18 -23 -39 -64 -40 l-36 -1 28 -10 c22
-8 25 -13 17 -23 -6 -8 -25 -17 -41 -20 -20 -5 -29 -12 -27 -23 3 -14 -6 -17
-54 -17 -31 0 -51 -3 -45 -7 7 -4 30 -8 53 -8 31 0 46 6 62 25 12 14 28 25 34
25 7 0 30 18 52 40 29 30 37 45 32 63 -4 17 2 29 28 49 42 34 59 76 42 109
-11 22 -8 28 26 68 56 64 63 112 19 124 -11 3 -26 -1 -32 -10z"/>
<path d="M10 876 c0 -20 39 -46 58 -39 12 5 10 11 -12 30 -31 26 -46 29 -46 9z"/>
<path d="M149 841 c-7 -21 2 -71 12 -71 11 0 11 37 0 65 -6 14 -9 16 -12 6z"/>
<path d="M384 825 c-17 -13 -16 -13 12 -3 43 16 82 3 122 -40 34 -36 35 -36
13 -4 -39 56 -106 78 -147 47z"/>
<path d="M207 823 c-4 -3 -7 -24 -7 -46 0 -34 2 -38 15 -27 8 7 15 28 15 46 0
32 -9 42 -23 27z"/>
<path d="M649 803 c-13 -16 -12 -17 4 -4 9 7 17 15 17 17 0 8 -8 3 -21 -13z"/>
<path d="M35 797 c33 -23 53 -26 65 -13 13 17 -6 26 -53 26 -29 0 -30 -1 -12
-13z"/>
<path d="M272 776 c-7 -15 -9 -39 -6 -53 6 -20 4 -24 -7 -18 -8 4 3 -7 24 -26
21 -19 44 -52 52 -74 8 -22 14 -32 15 -22 0 22 -16 55 -42 83 -15 17 -17 26
-8 48 7 19 6 35 -3 58 l-13 31 -12 -27z"/>
<path d="M609 773 c-13 -16 -12 -17 4 -4 9 7 17 15 17 17 0 8 -8 3 -21 -13z"/>
<path d="M385 750 c-3 -5 -2 -10 4 -10 5 0 13 5 16 10 3 6 2 10 -4 10 -5 0
-13 -4 -16 -10z"/>
<path d="M122 739 c-41 -8 -51 -17 -32 -29 23 -15 46 -12 70 8 28 23 11 32
-38 21z"/>
<path d="M708 724 c-39 -21 -35 -28 5 -8 37 19 44 24 31 24 -5 -1 -21 -8 -36
-16z"/>
<path d="M158 676 c-23 -17 -13 -26 27 -26 19 0 39 8 50 20 18 20 17 20 -21
20 -21 0 -47 -7 -56 -14z"/>
<path d="M360 676 c0 -2 7 -7 16 -10 8 -3 12 -2 9 4 -6 10 -25 14 -25 6z"/>
<path d="M412 540 c-2 -81 2 -103 22 -146 13 -28 37 -61 54 -72 44 -32 48 -27
7 9 -56 49 -68 82 -75 199 l-7 105 -1 -95z"/>
<path d="M853 383 c9 -2 23 -2 30 0 6 3 -1 5 -18 5 -16 0 -22 -2 -12 -5z"/>
<path d="M759 303 c12 -18 36 -42 54 -55 39 -28 208 -119 202 -108 -3 4 -48
32 -101 61 -52 29 -114 71 -136 94 -37 36 -39 37 -19 8z"/>
<path d="M900 40 c0 -14 -7 -20 -22 -21 -19 -1 -20 -2 -5 -6 24 -6 63 32 42
41 -10 4 -15 -1 -15 -14z"/>
<path d="M750 46 c0 -2 8 -10 18 -17 15 -13 16 -12 3 4 -13 16 -21 21 -21 13z"/>
<path d="M830 30 c0 -5 5 -10 11 -10 5 0 7 5 4 10 -3 6 -8 10 -11 10 -2 0 -4
-4 -4 -10z"/>
</g>
</svg>
